<mxfile host="app.diagrams.net" modified="2022-04-26T09:17:04.879Z" agent="5.0 (Macintosh; Intel Mac OS X 10_15_7) AppleWebKit/537.36 (KHTML, like Gecko) Chrome/100.0.4896.75 Safari/537.36" etag="SXRNqgrQ3qzFerW0hqzO" version="17.4.6" type="github">
  <diagram id="FvLrP-5tP1E4iG71-PzM" name="Page-1">
    <mxGraphModel dx="1273" dy="864" grid="1" gridSize="10" guides="1" tooltips="1" connect="1" arrows="1" fold="1" page="1" pageScale="1" pageWidth="827" pageHeight="1169" math="0" shadow="0">
      <root>
        <mxCell id="0" />
        <mxCell id="1" parent="0" />
        <mxCell id="i0TNP1yFJnq9GjO1eTZM-1" value="" style="endArrow=none;dashed=1;html=1;rounded=0;" edge="1" parent="1">
          <mxGeometry width="50" height="50" relative="1" as="geometry">
            <mxPoint x="500" y="240" as="sourcePoint" />
            <mxPoint x="500" y="120" as="targetPoint" />
          </mxGeometry>
        </mxCell>
        <mxCell id="i0TNP1yFJnq9GjO1eTZM-2" value="" style="endArrow=none;dashed=1;html=1;rounded=0;" edge="1" parent="1">
          <mxGeometry width="50" height="50" relative="1" as="geometry">
            <mxPoint x="40" y="240" as="sourcePoint" />
            <mxPoint x="40" y="120" as="targetPoint" />
          </mxGeometry>
        </mxCell>
        <mxCell id="i0TNP1yFJnq9GjO1eTZM-3" value="" style="endArrow=none;dashed=1;html=1;rounded=0;" edge="1" parent="1">
          <mxGeometry width="50" height="50" relative="1" as="geometry">
            <mxPoint x="450" y="240" as="sourcePoint" />
            <mxPoint x="450" y="120" as="targetPoint" />
            <Array as="points">
              <mxPoint x="450" y="180" />
            </Array>
          </mxGeometry>
        </mxCell>
        <mxCell id="i0TNP1yFJnq9GjO1eTZM-4" value="" style="endArrow=none;dashed=1;html=1;rounded=0;" edge="1" parent="1">
          <mxGeometry width="50" height="50" relative="1" as="geometry">
            <mxPoint x="780" y="240" as="sourcePoint" />
            <mxPoint x="780" y="120" as="targetPoint" />
          </mxGeometry>
        </mxCell>
        <mxCell id="i0TNP1yFJnq9GjO1eTZM-36" value="" style="edgeStyle=orthogonalEdgeStyle;rounded=0;orthogonalLoop=1;jettySize=auto;html=1;" edge="1" parent="1" source="i0TNP1yFJnq9GjO1eTZM-6">
          <mxGeometry relative="1" as="geometry">
            <mxPoint x="200" y="204" as="targetPoint" />
            <Array as="points">
              <mxPoint x="170" y="180" />
              <mxPoint x="170" y="204" />
            </Array>
          </mxGeometry>
        </mxCell>
        <mxCell id="i0TNP1yFJnq9GjO1eTZM-6" value="" style="rounded=0;whiteSpace=wrap;html=1;" vertex="1" parent="1">
          <mxGeometry x="60" y="150" width="90" height="60" as="geometry" />
        </mxCell>
        <mxCell id="i0TNP1yFJnq9GjO1eTZM-8" value="调用JS_SDK" style="text;html=1;strokeColor=none;fillColor=none;align=center;verticalAlign=middle;whiteSpace=wrap;rounded=0;" vertex="1" parent="1">
          <mxGeometry x="75" y="165" width="60" height="30" as="geometry" />
        </mxCell>
        <mxCell id="i0TNP1yFJnq9GjO1eTZM-11" value="" style="rounded=0;whiteSpace=wrap;html=1;" vertex="1" parent="1">
          <mxGeometry x="340" y="150" width="90" height="60" as="geometry" />
        </mxCell>
        <mxCell id="i0TNP1yFJnq9GjO1eTZM-12" value="signature" style="text;html=1;strokeColor=none;fillColor=none;align=center;verticalAlign=middle;whiteSpace=wrap;rounded=0;" vertex="1" parent="1">
          <mxGeometry x="355" y="165" width="60" height="30" as="geometry" />
        </mxCell>
        <mxCell id="i0TNP1yFJnq9GjO1eTZM-13" value="" style="endArrow=none;dashed=1;html=1;rounded=0;" edge="1" parent="1">
          <mxGeometry width="50" height="50" relative="1" as="geometry">
            <mxPoint x="40" y="120" as="sourcePoint" />
            <mxPoint x="450" y="120" as="targetPoint" />
          </mxGeometry>
        </mxCell>
        <mxCell id="i0TNP1yFJnq9GjO1eTZM-15" value="frontend" style="edgeLabel;html=1;align=center;verticalAlign=middle;resizable=0;points=[];" vertex="1" connectable="0" parent="i0TNP1yFJnq9GjO1eTZM-13">
          <mxGeometry x="-0.0159" y="1" relative="1" as="geometry">
            <mxPoint as="offset" />
          </mxGeometry>
        </mxCell>
        <mxCell id="i0TNP1yFJnq9GjO1eTZM-14" value="" style="endArrow=none;dashed=1;html=1;rounded=0;" edge="1" parent="1">
          <mxGeometry width="50" height="50" relative="1" as="geometry">
            <mxPoint x="40" y="240" as="sourcePoint" />
            <mxPoint x="450" y="240" as="targetPoint" />
          </mxGeometry>
        </mxCell>
        <mxCell id="i0TNP1yFJnq9GjO1eTZM-16" value="" style="endArrow=none;dashed=1;html=1;rounded=0;" edge="1" parent="1">
          <mxGeometry width="50" height="50" relative="1" as="geometry">
            <mxPoint x="500" y="120" as="sourcePoint" />
            <mxPoint x="780" y="120" as="targetPoint" />
          </mxGeometry>
        </mxCell>
        <mxCell id="i0TNP1yFJnq9GjO1eTZM-17" value="backend" style="edgeLabel;html=1;align=center;verticalAlign=middle;resizable=0;points=[];" vertex="1" connectable="0" parent="i0TNP1yFJnq9GjO1eTZM-16">
          <mxGeometry x="-0.0159" y="1" relative="1" as="geometry">
            <mxPoint as="offset" />
          </mxGeometry>
        </mxCell>
        <mxCell id="i0TNP1yFJnq9GjO1eTZM-18" value="" style="endArrow=none;dashed=1;html=1;rounded=0;" edge="1" parent="1">
          <mxGeometry width="50" height="50" relative="1" as="geometry">
            <mxPoint x="500" y="240" as="sourcePoint" />
            <mxPoint x="780" y="240" as="targetPoint" />
          </mxGeometry>
        </mxCell>
        <mxCell id="i0TNP1yFJnq9GjO1eTZM-19" value="" style="endArrow=classic;html=1;rounded=0;" edge="1" parent="1">
          <mxGeometry width="50" height="50" relative="1" as="geometry">
            <mxPoint x="440" y="180" as="sourcePoint" />
            <mxPoint x="510" y="179.5" as="targetPoint" />
          </mxGeometry>
        </mxCell>
        <mxCell id="i0TNP1yFJnq9GjO1eTZM-20" value="" style="rounded=0;whiteSpace=wrap;html=1;" vertex="1" parent="1">
          <mxGeometry x="520" y="150" width="90" height="60" as="geometry" />
        </mxCell>
        <mxCell id="i0TNP1yFJnq9GjO1eTZM-21" value="" style="rounded=0;whiteSpace=wrap;html=1;" vertex="1" parent="1">
          <mxGeometry x="670" y="150" width="90" height="60" as="geometry" />
        </mxCell>
        <mxCell id="i0TNP1yFJnq9GjO1eTZM-22" value="jsApiTicket" style="text;html=1;strokeColor=none;fillColor=none;align=center;verticalAlign=middle;whiteSpace=wrap;rounded=0;" vertex="1" parent="1">
          <mxGeometry x="535" y="165" width="60" height="30" as="geometry" />
        </mxCell>
        <mxCell id="i0TNP1yFJnq9GjO1eTZM-23" value="accessToken" style="text;html=1;strokeColor=none;fillColor=none;align=center;verticalAlign=middle;whiteSpace=wrap;rounded=0;" vertex="1" parent="1">
          <mxGeometry x="685" y="165" width="60" height="30" as="geometry" />
        </mxCell>
        <mxCell id="i0TNP1yFJnq9GjO1eTZM-24" value="" style="endArrow=classic;html=1;rounded=0;" edge="1" parent="1">
          <mxGeometry width="50" height="50" relative="1" as="geometry">
            <mxPoint x="620" y="179.71999999999997" as="sourcePoint" />
            <mxPoint x="660" y="179.71999999999997" as="targetPoint" />
          </mxGeometry>
        </mxCell>
        <mxCell id="i0TNP1yFJnq9GjO1eTZM-27" value="wx.config" style="text;html=1;strokeColor=none;fillColor=none;align=center;verticalAlign=middle;whiteSpace=wrap;rounded=0;" vertex="1" parent="1">
          <mxGeometry x="213" y="130" width="60" height="50" as="geometry" />
        </mxCell>
        <mxCell id="i0TNP1yFJnq9GjO1eTZM-28" value="wx.agentConfig" style="text;html=1;strokeColor=none;fillColor=none;align=center;verticalAlign=middle;whiteSpace=wrap;rounded=0;" vertex="1" parent="1">
          <mxGeometry x="218" y="189" width="60" height="30" as="geometry" />
        </mxCell>
        <mxCell id="i0TNP1yFJnq9GjO1eTZM-33" value="" style="edgeStyle=elbowEdgeStyle;elbow=horizontal;endArrow=classic;html=1;rounded=0;entryX=0;entryY=0.5;entryDx=0;entryDy=0;" edge="1" parent="1">
          <mxGeometry width="50" height="50" relative="1" as="geometry">
            <mxPoint x="297" y="205" as="sourcePoint" />
            <mxPoint x="337" y="180" as="targetPoint" />
          </mxGeometry>
        </mxCell>
        <mxCell id="i0TNP1yFJnq9GjO1eTZM-35" value="" style="edgeStyle=elbowEdgeStyle;elbow=horizontal;endArrow=classic;html=1;rounded=0;" edge="1" parent="1">
          <mxGeometry width="50" height="50" relative="1" as="geometry">
            <mxPoint x="297" y="155" as="sourcePoint" />
            <mxPoint x="337" y="180" as="targetPoint" />
            <Array as="points">
              <mxPoint x="317" y="170" />
            </Array>
          </mxGeometry>
        </mxCell>
        <mxCell id="i0TNP1yFJnq9GjO1eTZM-38" value="" style="edgeStyle=elbowEdgeStyle;elbow=horizontal;endArrow=classic;html=1;rounded=0;exitX=1;exitY=0.5;exitDx=0;exitDy=0;" edge="1" parent="1" source="i0TNP1yFJnq9GjO1eTZM-6">
          <mxGeometry width="50" height="50" relative="1" as="geometry">
            <mxPoint x="160" y="186" as="sourcePoint" />
            <mxPoint x="200" y="156" as="targetPoint" />
            <Array as="points">
              <mxPoint x="170" y="180" />
            </Array>
          </mxGeometry>
        </mxCell>
      </root>
    </mxGraphModel>
  </diagram>
</mxfile>
